<svg id="4b090ec8-5575-48ec-bc6a-ade8459e91bc" data-name="Layer 1" xmlns="http://www.w3.org/2000/svg" viewBox="0 0 612 660.72"><defs><style>.b1a344c4-8aee-4788-8e18-69d0208bbe05{fill:#b82333;}.\31 e0e10f8-550d-4d18-a455-c8e4ed80c374{fill:#fff;}</style></defs><title>Artboard 1</title><rect class="b1a344c4-8aee-4788-8e18-69d0208bbe05" y="0.72" width="612" height="660"/><path class="1e0e10f8-550d-4d18-a455-c8e4ed80c374" d="M107.09,356.65V463.13c2.72-3,2.92-3.24,4-4.36,39.58-42.83,73.35-67.67,118.69-69.07,36.38-1.12,68.57,20.86,99.7,42.13,24,16.4,46.69,31.9,67.92,33.68,47.59,4,78-21.24,103-50.68,2.76-3.11,1.31-1.51,3.95-4.72V356.65Z"/><path class="1e0e10f8-550d-4d18-a455-c8e4ed80c374" d="M125.2,260c-7.51,3.87-11.32,11.46-11.32,22.55v2.8h34.29v-2.8c0-2.23,0-9,18.7-9,11.57,0,16.22,1.49,18.09,2.74,2.35,1.58,3.55,5.19,3.55,10.72v7.51c-6.39-4.19-17.29-6.25-33-6.25-30.75,0-46.34,9.69-46.34,28.79,0,18.93,15.26,28.53,45.36,28.53,16,0,27.38-2.71,34.51-8.24l-.84,7.13H222V287.24c0-12.66-4.24-21.44-12.59-26.08-7.93-4.4-22.36-6.54-44.11-6.54C145.33,254.62,132.21,256.38,125.2,260Zm21.22,64.42c-.85-.44-3.43-1.77-3.43-8.27,0-6,7.12-9,21.15-9,16.41,0,24.73,3.33,24.73,9.89,0,6.39-7.74,9.63-23,9.63C153.38,326.66,148.4,325.44,146.43,324.41Z"/><path class="1e0e10f8-550d-4d18-a455-c8e4ed80c374" d="M269.57,220.26H238.85V344.45h33.5V220.26Z"/><path class="1e0e10f8-550d-4d18-a455-c8e4ed80c374" d="M327.5,237.26H296.78v18.47H281.71v20.75h15.07v41.68c0,18.18,13.61,27.4,40.45,27.4s41.13-7.28,42.89-21.62a87.57,87.57,0,0,0,.51-10.22l0-7H350.78s.37,5.92.38,6.16c0,7.75-3.43,11.21-11.07,11.21-6.88,0-9.82-2.63-9.82-8.8v-38.8h45.57V255.73H330.28V237.26Z"/><path class="1e0e10f8-550d-4d18-a455-c8e4ed80c374" d="M408.1,260c-7.51,3.87-11.31,11.46-11.31,22.55v2.8h34.29v-2.8c0-2.23,0-9,18.7-9,11.57,0,16.22,1.49,18.09,2.74,2.35,1.58,3.55,5.19,3.55,10.72v7.51c-6.39-4.19-17.29-6.25-33-6.25-30.75,0-46.34,9.69-46.34,28.79,0,18.93,15.26,28.53,45.36,28.53,16,0,27.38-2.71,34.51-8.24l-.84,7.13h33.85V287.24c0-12.66-4.24-21.44-12.59-26.08-7.93-4.4-22.36-6.54-44.11-6.54C428.23,254.62,415.11,256.38,408.1,260Zm21.22,64.42c-.85-.44-3.42-1.77-3.42-8.27,0-6,7.11-9,21.15-9,16.41,0,24.73,3.33,24.73,9.89,0,6.39-7.74,9.63-23,9.63C436.27,326.66,431.3,325.44,429.32,324.41Z"/><path class="1e0e10f8-550d-4d18-a455-c8e4ed80c374" d="M500.39,428.49c-9.48,10.38-21,21.19-34.29,29.5-21.21,13.24-43.93,18.64-69.45,16.5-23.58-2-47.21-18.12-72.22-35.21-29.95-20.46-60.91-41.61-94.37-40.58-44.71,1.38-78.08,28-119,73.46-.46.53-1.26,1.36-4,4.44v43.66H504.35V424C501.81,426.93,501,427.8,500.39,428.49Z"/><path class="1e0e10f8-550d-4d18-a455-c8e4ed80c374" d="M107.22,528.29H118.4c5.47,0,6.17.12,8,1.28,2.07,1.32,2.9,3.69,2.9,8.37,0,5.3-1.37,7.83-4.8,8.7-1,.29-1,.29-5.8.37h-6.17v8.9h-5.3Zm11.27,14.16c4.68,0,5.43-.62,5.43-4.6,0-3.06-.33-4.18-1.41-4.76-.75-.33-1.24-.41-3.48-.41h-6.5v9.77Z"/><path class="1e0e10f8-550d-4d18-a455-c8e4ed80c374" d="M138.35,551.28h12.88v4.64H133V528.29h5.3Z"/><path class="1e0e10f8-550d-4d18-a455-c8e4ed80c374" d="M160.74,550.61l-1.7,5.3h-5.55l9.19-27.62h7.83l9.36,27.62h-5.43l-1.78-5.3Zm6-18.26L162,546.68h9.48Z"/><path class="1e0e10f8-550d-4d18-a455-c8e4ed80c374" d="M208.83,555.92h-8.9L192,540.76c-.5-1-1-2.19-2.4-5.3l-1.2-2.61h-.17c.17,4.8.17,4.8.17,7.21v15.86H183.2V528.29h8.86l7.21,14c.83,1.7,2.28,4.68,4.31,9h.17c-.17-4.72-.17-4.72-.17-7.12v-15.9h5.26Z"/><path class="1e0e10f8-550d-4d18-a455-c8e4ed80c374" d="M239.44,555.92h-8.9l-7.91-15.16c-.5-1-1-2.19-2.4-5.3l-1.2-2.61h-.17c.17,4.8.17,4.8.17,7.21v15.86H213.8V528.29h8.86l7.21,14c.83,1.7,2.28,4.68,4.31,9h.17c-.17-4.72-.17-4.72-.17-7.12v-15.9h5.26Z"/><path class="1e0e10f8-550d-4d18-a455-c8e4ed80c374" d="M249.7,555.92h-5.3V528.29h5.3Z"/><path class="1e0e10f8-550d-4d18-a455-c8e4ed80c374" d="M280.26,555.92h-8.9l-7.91-15.16c-.5-1-1-2.19-2.4-5.3l-1.2-2.61h-.17c.17,4.8.17,4.8.17,7.21v15.86h-5.22V528.29h8.86l7.21,14c.83,1.7,2.28,4.68,4.31,9h.17c-.17-4.72-.17-4.72-.17-7.12v-15.9h5.26Z"/><path class="1e0e10f8-550d-4d18-a455-c8e4ed80c374" d="M308.58,541.25c.08,1.41.08,2.4.08,4.76,0,4.8-.45,6.54-2,8.08s-3.81,2.07-10.27,2.07c-4,0-5.72-.25-7.41-1-3.31-1.53-4.43-4.14-4.43-10.35,0-7.25.08-8.82.62-10.89a7.21,7.21,0,0,1,5.59-5.43A29.19,29.19,0,0,1,297,528c5.67,0,7.08.21,8.95,1.33s2.57,3.06,2.65,7.21h-5.34c-.17-3.69-.83-4.1-6.54-4.1-4,0-5.38.46-6.13,2-.54,1.16-.66,2.44-.66,7.46,0,5.22.12,6.75.62,7.83.7,1.53,2.24,2,6.54,2,3,0,4.56-.29,5.26-1s1.08-2.19,1.08-4.43c0-.12,0-.62-.08-1.12H296.4v-3.93Z"/><path class="1e0e10f8-550d-4d18-a455-c8e4ed80c374" d="M333.63,544.28h-7.91V540h7.91v-8.12h4.72V540h7.91v4.31h-7.91v8.12h-4.72Z"/><path class="1e0e10f8-550d-4d18-a455-c8e4ed80c374" d="M364.53,528.29h13.62c3.81,0,6.21.75,7.79,2.36,2,2,2.65,4.39,2.65,9.19,0,7.66-.25,9.9-1.28,11.89-1.53,2.9-4.31,4.18-9,4.18H364.53Zm12.76,23.07c2.53,0,3.93-.5,4.76-1.66s1.16-2.94,1.16-7.66-.21-6.38-1.08-7.58-2.07-1.57-4.51-1.57h-7.79v18.47Z"/><path class="1e0e10f8-550d-4d18-a455-c8e4ed80c374" d="M397.78,539.85h12.88v3.89H397.78v7.79h13.71v4.39h-19V528.29h18.89v4.39H397.78Z"/><path class="1e0e10f8-550d-4d18-a455-c8e4ed80c374" d="M431.36,536.37v-.5c0-3-.87-3.64-5.14-3.64-5,0-6,.62-6,3.77,0,2,.54,2.94,1.94,3.35.66.17,1,.21,5.14.41,4.76.29,6.34.62,7.7,1.62,1.57,1.2,2.11,2.82,2.11,6.21s-.5,5.3-1.7,6.5c-1.66,1.62-3.77,2.07-9.53,2.07-6.34,0-8.53-.62-9.9-2.73-.87-1.32-1.12-2.69-1.16-6.25h5.09c0,2.07.12,2.77.58,3.48.66,1.12,1.32,1.24,5.63,1.24,5.05,0,5.76-.54,5.76-4.22,0-1.86-.46-2.73-1.62-3.11-.66-.21-.66-.21-5.18-.5-4.84-.29-5.88-.46-7.29-1.24-2.07-1.12-2.9-3.06-2.9-6.75,0-3.27.7-5.3,2.19-6.38,1.7-1.28,3.81-1.66,9-1.66s7.5.54,8.86,2.15c1,1.2,1.49,2.86,1.49,5.18v1Z"/><path class="1e0e10f8-550d-4d18-a455-c8e4ed80c374" d="M446.39,555.92h-5.3V528.29h5.3Z"/><path class="1e0e10f8-550d-4d18-a455-c8e4ed80c374" d="M474.68,541.25c.08,1.41.08,2.4.08,4.76,0,4.8-.45,6.54-2,8.08s-3.81,2.07-10.27,2.07c-4,0-5.72-.25-7.41-1-3.31-1.53-4.43-4.14-4.43-10.35,0-7.25.08-8.82.62-10.89a7.22,7.22,0,0,1,5.59-5.43,29.21,29.21,0,0,1,6.25-.41c5.67,0,7.08.21,8.95,1.33s2.57,3.06,2.65,7.21h-5.34c-.17-3.69-.83-4.1-6.54-4.1-4,0-5.38.46-6.13,2-.54,1.16-.66,2.44-.66,7.46,0,5.22.12,6.75.62,7.83.7,1.53,2.24,2,6.54,2,3,0,4.56-.29,5.26-1s1.08-2.19,1.08-4.43c0-.12,0-.62-.08-1.12h-6.92v-3.93Z"/><path class="1e0e10f8-550d-4d18-a455-c8e4ed80c374" d="M504.56,555.92h-8.91l-7.91-15.16c-.5-1-1-2.19-2.4-5.3l-1.2-2.61H484c.17,4.8.17,4.8.17,7.21v15.86h-5.22V528.29h8.86l7.21,14c.83,1.7,2.28,4.68,4.31,9h.17c-.17-4.72-.17-4.72-.17-7.12v-15.9h5.26Z"/></svg>